<?xml version="1.0" standalone="no"?>
<!DOCTYPE svg PUBLIC "-//W3C//DTD SVG 20010904//EN"
 "http://www.w3.org/TR/2001/REC-SVG-20010904/DTD/svg10.dtd">
<svg version="1.0" xmlns="http://www.w3.org/2000/svg"
 width="1080.000000pt" height="1080.000000pt" viewBox="0 0 1080.000000 1080.000000"
 preserveAspectRatio="xMidYMid meet">

<g transform="translate(0.000000,1080.000000) scale(0.100000,-0.100000)"
fill="#000000" stroke="none">
<path d="M5563 5871 c-56 -3 -107 -11 -113 -17 -10 -10 -168 -431 -215 -574
-18 -54 -19 -54 -26 -25 -4 17 -24 152 -45 300 -20 149 -43 280 -51 293 -12
19 -22 22 -74 22 -33 0 -68 -4 -78 -9 -22 -12 -29 -29 -151 -351 -55 -145
-105 -269 -110 -274 -7 -7 -10 4 -10 30 0 21 -16 158 -35 304 -19 146 -35 266
-35 267 0 1 -7 9 -16 17 -12 12 -38 16 -115 16 -90 0 -99 -2 -99 -19 0 -17
134 -854 146 -914 l6 -28 100 3 99 3 118 305 c65 168 121 314 125 324 3 10 8
17 10 15 4 -4 96 -615 96 -637 0 -8 31 -12 103 -12 l102 0 188 464 c195 481
205 507 191 504 -5 -1 -55 -4 -111 -7z"/>
<path d="M6046 5871 c-4 -6 -32 -213 -62 -459 -29 -246 -56 -459 -59 -474 l-4
-28 109 0 109 0 6 33 c3 17 12 88 21 157 8 68 16 125 17 126 1 0 56 6 123 11
143 12 218 40 282 106 97 99 124 283 60 400 -25 46 -97 100 -156 118 -54 16
-437 25 -446 10z m386 -200 c29 -32 30 -37 26 -107 -6 -120 -55 -164 -186
-164 l-74 0 6 28 c3 15 10 70 16 122 6 52 13 110 16 129 l5 33 81 -4 c76 -3
81 -5 110 -37z"/>
<path d="M6836 5871 c-3 -5 -31 -211 -61 -457 -30 -247 -57 -461 -60 -476 l-4
-28 288 0 289 0 6 28 c3 15 8 53 12 85 l6 57 -177 0 -178 0 7 68 c4 37 9 88
13 115 l6 47 133 0 c73 0 135 3 137 8 3 4 8 42 12 85 l7 77 -134 0 -134 0 13
105 c7 58 15 110 18 115 4 6 80 10 179 10 l174 0 9 78 c6 42 8 80 6 85 -6 10
-561 9 -567 -2z"/>
<path d="M7773 5864 c-3 -9 -106 -226 -229 -483 l-222 -466 96 -3 c123 -4 134
4 184 124 l36 89 164 0 163 0 16 -94 c12 -66 22 -99 35 -108 12 -9 50 -13 116
-13 54 0 98 1 98 3 0 1 -51 218 -113 482 l-112 480 -113 3 c-97 2 -113 0 -119
-14z m132 -389 c14 -88 29 -168 31 -177 5 -16 -5 -18 -110 -18 -70 0 -116 4
-116 10 0 5 27 74 59 152 96 232 92 224 101 208 4 -8 20 -87 35 -175z"/>
<path d="M8256 5823 c-4 -32 -10 -73 -13 -90 l-5 -33 121 0 c121 0 121 0 121
-24 0 -23 -74 -654 -86 -728 l-6 -38 110 0 109 0 11 83 c6 45 28 223 48 395
l38 312 122 0 122 0 11 80 c7 44 9 85 6 90 -4 6 -134 10 -354 10 l-349 0 -6
-57z"/>
<path d="M9007 5848 c-3 -18 -9 -59 -13 -90 l-6 -58 121 0 c90 0 121 -3 121
-12 0 -7 -20 -179 -45 -383 -25 -203 -45 -376 -45 -382 0 -10 28 -13 108 -13
l108 0 38 313 c20 171 42 349 48 394 l11 82 121 3 121 3 12 79 c7 44 10 83 7
88 -3 4 -162 8 -353 8 l-349 0 -5 -32z"/>
<path d="M9825 5868 c-4 -13 -115 -927 -115 -948 0 -6 42 -10 110 -10 61 0
110 3 110 8 0 4 25 211 55 461 30 249 55 464 55 477 0 24 -1 24 -105 24 -76 0
-107 -4 -110 -12z"/>
<path d="M10216 5868 c-4 -12 -116 -934 -116 -951 0 -4 129 -6 287 -5 l287 3
7 40 c3 22 9 59 12 83 l5 42 -179 0 c-103 0 -179 4 -179 9 0 12 18 155 26 199
l5 32 134 0 133 0 6 40 c3 22 9 58 12 80 l6 40 -137 0 -136 0 7 63 c4 34 10
85 13 112 l6 50 177 3 c201 3 182 -7 194 105 l6 67 -286 0 c-221 0 -288 -3
-290 -12z"/>
<path d="M423 5858 c-4 -7 -101 -209 -215 -448 -157 -328 -208 -444 -208 -472
l0 -38 75 0 c111 0 125 10 171 124 l39 96 162 0 162 0 10 -52 c6 -29 13 -70
17 -90 11 -67 21 -73 133 -76 85 -3 101 -1 101 11 0 14 -203 898 -216 940 -5
15 -19 17 -114 17 -76 0 -111 -4 -117 -12z m127 -385 c16 -95 30 -179 30 -188
0 -13 -19 -15 -115 -15 -63 0 -115 2 -115 4 0 3 105 256 146 351 9 22 18 36
20 30 2 -5 17 -88 34 -182z"/>
<path d="M1065 5858 c-5 -15 -115 -915 -115 -941 0 -15 12 -17 94 -17 l94 0 6
38 c3 20 20 156 36 302 17 146 32 269 33 273 1 5 74 -119 162 -274 88 -156
170 -295 181 -308 19 -22 32 -26 97 -29 l75 -4 6 38 c3 22 29 224 56 449 27
226 52 427 56 448 l6 37 -96 0 c-68 0 -98 -4 -101 -12 -2 -7 -18 -134 -35
-283 -17 -148 -33 -281 -36 -294 -4 -20 -36 29 -168 262 -89 157 -170 295
-180 306 -16 18 -31 21 -93 21 -50 0 -75 -4 -78 -12z"/>
<path d="M2020 5863 c0 -5 -25 -216 -56 -469 -31 -254 -54 -469 -51 -478 5
-13 24 -16 114 -16 199 1 353 16 415 39 169 65 285 201 324 381 57 264 -67
491 -294 539 -59 12 -452 15 -452 4z m407 -178 c48 -20 71 -41 95 -89 64 -125
25 -362 -73 -451 -54 -48 -99 -65 -201 -72 -74 -5 -88 -4 -93 10 -4 8 10 146
29 307 20 160 36 295 36 300 0 16 166 12 207 -5z"/>
<path d="M2956 5858 c-3 -7 -28 -206 -56 -443 -28 -236 -54 -447 -57 -467 l-6
-38 112 0 c82 0 111 3 111 13 0 31 40 330 45 338 10 15 51 10 74 -8 12 -11 43
-78 76 -168 30 -82 62 -156 72 -162 17 -13 243 -19 243 -7 0 22 -138 336 -160
365 l-28 35 33 18 c89 48 154 151 162 260 10 118 -37 201 -140 247 -48 22 -67
24 -264 27 -171 3 -214 1 -217 -10z m344 -166 c47 -23 62 -55 57 -123 -6 -102
-62 -149 -178 -149 l-61 0 5 33 c3 17 11 77 17 132 6 55 13 106 15 113 6 18
104 15 145 -6z"/>
<path d="M3765 5848 c-2 -13 -27 -212 -55 -443 -28 -231 -54 -437 -57 -457
l-6 -38 291 0 290 0 6 58 c4 31 9 69 12 85 l6 27 -182 0 -181 0 5 33 c6 32 26
185 26 193 0 2 60 4 134 4 l134 0 6 33 c3 17 8 56 12 85 l7 52 -138 0 -137 0
5 33 c3 17 9 59 12 92 11 104 -7 95 190 95 198 0 179 -10 191 103 l6 67 -286
0 -286 0 -5 -22z"/>
</g>
</svg>
