<svg xmlns="http://www.w3.org/2000/svg" xmlns:xlink="http://www.w3.org/1999/xlink" version="1.1" width="1000" height="1000" viewBox="0 0 1000 1000" xml:space="preserve">
<desc>Created with Fabric.js 3.5.0</desc>
<defs>
</defs>
<rect x="0" y="0" width="100%" height="100%" fill="rgba(255,255,255,0)"/>
<g transform="matrix(0.5183 0 0 0.5183 499.9867 499.9987)" id="307345">
<g style="" vector-effect="non-scaling-stroke">
		<g transform="matrix(0.1333 0 0 -0.1333 -69.466 -2.4577)">
<path style="stroke: none; stroke-width: 1; stroke-dasharray: none; stroke-linecap: butt; stroke-dashoffset: 0; stroke-linejoin: miter; stroke-miterlimit: 4; is-custom-font: none; font-file-url: none; fill: rgb(255,255,255); fill-rule: nonzero; opacity: 1;" transform=" translate(-6714.2187, -713.272)" d="M 7425 1349 c -155 -13 -153 -13 -182 -77 c -34 -78 -180 -465 -239 -636 c -40 -115 -49 -135 -56 -115 c -4 13 -28 166 -53 339 c -73 504 -68 491 -179 489 c -121 -2 -119 0 -227 -281 c -167 -437 -222 -571 -229 -557 c -4 8 -10 51 -14 97 c -4 46 -25 221 -47 390 c -34 261 -43 310 -60 327 c -17 18 -33 20 -144 20 c -72 0 -128 -4 -134 -10 c -7 -8 9 -139 54 -425 c 71 -453 134 -830 139 -839 c 2 -3 64 -4 137 -1 l 132 5 l 119 310 c 191 498 210 546 215 542 c 5 -6 68 -408 104 -667 c 13 -91 27 -171 32 -178 c 7 -9 43 -12 140 -10 l 131 3 l 56 140 c 255 631 440 1095 446 1118 c 7 31 15 30 -141 16 z" stroke-linecap="round"/>
</g>
		<g transform="matrix(0.1333 0 0 -0.1333 155.8571 -2.577)">
<path style="stroke: none; stroke-width: 1; stroke-dasharray: none; stroke-linecap: butt; stroke-dashoffset: 0; stroke-linejoin: miter; stroke-miterlimit: 4; is-custom-font: none; font-file-url: none; fill: rgb(255,255,255); fill-rule: nonzero; opacity: 1;" transform=" translate(-8404.0548, -714.1667)" d="M 8088 1353 c -17 -3 -28 -12 -31 -26 c -11 -44 -157 -1202 -157 -1242 c 0 -13 23 -15 145 -15 c 80 0 145 2 145 5 c 0 31 53 402 58 407 c 4 3 61 12 127 18 c 224 21 319 55 403 143 c 92 99 138 229 129 367 c -7 105 -32 164 -93 226 c -86 86 -131 102 -324 114 c -161 10 -348 11 -402 3 z m 484 -272 l 41 -43 l -5 -93 c -9 -168 -59 -215 -235 -223 c -71 -3 -103 -1 -103 6 c 0 14 38 314 46 365 l 6 39 l 105 -4 l 104 -3 l 41 -44 z" stroke-linecap="round"/>
</g>
		<g transform="matrix(0.1333 0 0 -0.1333 289.7102 -2.561)">
<path style="stroke: none; stroke-width: 1; stroke-dasharray: none; stroke-linecap: butt; stroke-dashoffset: 0; stroke-linejoin: miter; stroke-miterlimit: 4; is-custom-font: none; font-file-url: none; fill: rgb(255,255,255); fill-rule: nonzero; opacity: 1;" transform=" translate(-9407.9416, -714.0464)" d="M 9144 1353 c -29 -4 -32 -8 -38 -51 c -24 -171 -72 -546 -106 -827 c -22 -181 -43 -347 -47 -367 l -6 -38 l 386 0 l 386 0 l 6 33 c 6 37 25 168 25 180 c 0 4 -106 7 -235 7 l -235 0 l 0 28 c 0 15 7 82 15 147 c 8 66 15 123 15 128 c 0 4 79 7 175 7 c 172 0 176 0 185 23 c 11 25 29 195 21 202 c -2 3 -82 5 -178 5 c -158 0 -173 1 -172 18 c 2 72 37 265 50 273 c 8 5 114 9 235 9 l 222 0 l 5 28 c 3 16 9 64 13 106 c 5 62 4 80 -7 87 c -13 8 -650 10 -715 2 z" stroke-linecap="round"/>
</g>
		<g transform="matrix(0.1333 0 0 -0.1333 417.9799 -2.6605)">
<path style="stroke: none; stroke-width: 1; stroke-dasharray: none; stroke-linecap: butt; stroke-dashoffset: 0; stroke-linejoin: miter; stroke-miterlimit: 4; is-custom-font: none; font-file-url: none; fill: rgb(255,255,255); fill-rule: nonzero; opacity: 1;" transform=" translate(-10370, -714.7925)" d="M 10378 1348 c -9 -7 -77 -141 -151 -298 c -74 -157 -208 -437 -296 -623 c -89 -186 -161 -343 -161 -348 c 0 -15 226 -11 265 5 c 36 15 72 76 124 208 l 23 58 l 218 0 l 218 0 l 6 -28 c 3 -15 13 -67 22 -115 c 25 -132 25 -131 188 -135 c 79 -2 136 0 136 6 c 0 5 -40 180 -89 388 c -49 208 -115 492 -148 630 l -58 252 l -50 6 c -89 10 -230 7 -247 -6 z m 156 -503 c 20 -110 37 -218 39 -240 l 2 -40 l -142 0 c -78 0 -144 3 -148 6 c -3 4 26 87 65 184 c 100 247 129 310 139 299 c 5 -5 25 -99 45 -209 z" stroke-linecap="round"/>
</g>
		<g transform="matrix(0.1333 0 0 -0.1333 564.4615 -2.7574)">
<path style="stroke: none; stroke-width: 1; stroke-dasharray: none; stroke-linecap: butt; stroke-dashoffset: 0; stroke-linejoin: miter; stroke-miterlimit: 4; is-custom-font: none; font-file-url: none; fill: rgb(255,255,255); fill-rule: nonzero; opacity: 1;" transform=" translate(-11468.5825, -715.519)" d="M 11019 1358 c -1 -2 -9 -56 -18 -120 l -17 -118 l 152 0 c 110 0 154 -3 162 -13 c 12 -14 15 19 -58 -596 c -28 -234 -53 -428 -56 -433 c -3 -4 62 -8 144 -8 l 150 0 l 12 98 c 6 53 35 288 63 522 l 52 425 l 162 3 l 162 2 l 6 33 c 17 95 23 183 14 192 c -9 9 -927 22 -930 13 z" stroke-linecap="round"/>
</g>
		<g transform="matrix(0.1333 0 0 -0.1333 697.5782 -2.6881)">
<path style="stroke: none; stroke-width: 1; stroke-dasharray: none; stroke-linecap: butt; stroke-dashoffset: 0; stroke-linejoin: miter; stroke-miterlimit: 4; is-custom-font: none; font-file-url: none; fill: rgb(255,255,255); fill-rule: nonzero; opacity: 1;" transform=" translate(-12466.9577, -715)" d="M 12001 1253 c -7 -60 -14 -114 -17 -120 c -2 -10 31 -13 144 -13 c 104 0 153 -4 163 -12 c 14 -12 13 -36 -11 -233 c -87 -708 -95 -786 -80 -795 c 8 -6 74 -10 146 -10 l 130 0 l 28 238 c 51 432 97 795 102 804 c 3 4 53 8 112 8 c 59 0 130 3 158 6 l 52 7 l 11 74 c 6 40 11 89 11 107 l 0 33 l -77 7 c -42 3 -252 6 -468 6 l -392 0 l -12 -107 z" stroke-linecap="round"/>
</g>
		<g transform="matrix(0.1333 0 0 -0.1333 791.2069 -2.6286)">
<path style="stroke: none; stroke-width: 1; stroke-dasharray: none; stroke-linecap: butt; stroke-dashoffset: 0; stroke-linejoin: miter; stroke-miterlimit: 4; is-custom-font: none; font-file-url: none; fill: rgb(255,255,255); fill-rule: nonzero; opacity: 1;" transform=" translate(-13169.1059, -714.5533)" d="M 13118 1353 c -22 -6 -19 12 -82 -503 c -73 -588 -90 -746 -83 -765 c 5 -12 30 -15 147 -15 c 77 0 140 2 140 5 c 0 3 16 134 35 293 c 19 158 50 424 69 592 c 20 168 38 320 41 339 c 7 56 -3 61 -134 60 c -64 -1 -124 -3 -133 -6 z" stroke-linecap="round"/>
</g>
		<g transform="matrix(0.1333 0 0 -0.1333 892.7847 -2.6881)">
<path style="stroke: none; stroke-width: 1; stroke-dasharray: none; stroke-linecap: butt; stroke-dashoffset: 0; stroke-linejoin: miter; stroke-miterlimit: 4; is-custom-font: none; font-file-url: none; fill: rgb(255,255,255); fill-rule: nonzero; opacity: 1;" transform=" translate(-13931, -715)" d="M 13644 1353 c -15 -3 -24 -14 -28 -36 c -14 -81 -146 -1181 -146 -1221 l 0 -26 l 380 0 l 380 0 l 5 23 c 8 38 25 151 25 173 c 0 20 -5 21 -231 27 c -128 4 -234 9 -237 12 c -6 6 25 267 35 291 c 4 11 43 14 181 16 l 177 3 l 12 75 c 6 41 12 90 12 108 l 1 32 l -180 0 l -180 0 l 4 23 c 3 12 10 72 16 132 c 6 61 14 118 16 127 c 4 14 30 17 228 20 c 164 2 227 6 239 16 c 8 7 18 35 21 63 c 3 27 9 72 12 99 l 6 50 l -364 -1 c -199 -1 -373 -4 -384 -6 z" stroke-linecap="round"/>
</g>
		<g transform="matrix(0.1333 0 0 -0.1333 -887.6687 -0.2656)">
<path style="stroke: none; stroke-width: 1; stroke-dasharray: none; stroke-linecap: butt; stroke-dashoffset: 0; stroke-linejoin: miter; stroke-miterlimit: 4; is-custom-font: none; font-file-url: none; fill: rgb(255,255,255); fill-rule: nonzero; opacity: 1;" transform=" translate(-577.629, -696.8289)" d="M 596 1343 c -26 -4 -38 -24 -148 -251 c -163 -334 -395 -833 -424 -910 c -13 -34 -24 -79 -24 -99 l 0 -36 l 104 5 c 106 5 142 17 173 57 c 7 9 33 67 59 129 l 47 112 l 213 0 c 213 0 214 0 219 -22 c 3 -13 14 -70 25 -127 c 11 -58 26 -111 34 -119 c 23 -23 245 -42 275 -23 c 11 7 8 29 -13 122 c -194 854 -263 1149 -271 1158 c -8 7 -228 11 -269 4 z m 123 -453 c 44 -247 53 -309 47 -325 c -4 -12 -32 -15 -151 -15 l -146 0 l 7 23 c 7 24 193 467 201 480 c 3 5 6 7 8 5 c 2 -2 17 -77 34 -168 z" stroke-linecap="round"/>
</g>
		<g transform="matrix(0.1333 0 0 -0.1333 -715.1389 -0.6218)">
<path style="stroke: none; stroke-width: 1; stroke-dasharray: none; stroke-linecap: butt; stroke-dashoffset: 0; stroke-linejoin: miter; stroke-miterlimit: 4; is-custom-font: none; font-file-url: none; fill: rgb(255,255,255); fill-rule: nonzero; opacity: 1;" transform=" translate(-1871.6083, -699.5)" d="M 1444 1343 c -28 -5 -22 29 -93 -548 c -72 -584 -87 -722 -77 -732 c 4 -5 61 -9 125 -11 l 118 -4 l 11 74 c 6 40 27 217 47 393 c 20 176 38 326 41 334 c 7 20 26 -10 194 -304 c 222 -389 266 -460 294 -473 c 14 -6 65 -14 114 -18 l 88 -7 l 18 139 c 9 77 44 357 76 624 c 33 267 63 498 66 514 l 6 28 l -126 -4 c -69 -2 -130 -8 -135 -13 c -5 -6 -28 -174 -51 -375 c -24 -201 -46 -374 -50 -384 c -6 -17 -9 -16 -32 15 c -14 19 -103 169 -198 334 c -207 361 -237 407 -270 416 c -27 8 -132 9 -166 2 z" stroke-linecap="round"/>
</g>
		<g transform="matrix(0.1333 0 0 -0.1333 -547.7326 -0.7024)">
<path style="stroke: none; stroke-width: 1; stroke-dasharray: none; stroke-linecap: butt; stroke-dashoffset: 0; stroke-linejoin: miter; stroke-miterlimit: 4; is-custom-font: none; font-file-url: none; fill: rgb(255,255,255); fill-rule: nonzero; opacity: 1;" transform=" translate(-3127.1502, -700.1063)" d="M 2714 1344 c -23 -6 -17 38 -104 -699 c -51 -438 -63 -553 -57 -570 c 13 -33 436 -26 622 11 c 123 25 222 81 325 184 c 97 96 145 180 181 316 c 27 101 29 261 5 354 c -48 190 -173 327 -345 381 c -58 17 -100 20 -336 24 c -148 2 -279 2 -291 -1 z m 470 -234 c 144 -23 216 -136 216 -335 c 0 -110 -26 -221 -71 -306 c -62 -115 -145 -163 -317 -181 c -91 -10 -114 -9 -127 2 c -18 15 -19 8 21 360 c 40 355 55 454 67 462 c 17 11 141 10 211 -2 z" stroke-linecap="round"/>
</g>
		<g transform="matrix(0.1333 0 0 -0.1333 -394.5516 -1.7796)">
<path style="stroke: none; stroke-width: 1; stroke-dasharray: none; stroke-linecap: butt; stroke-dashoffset: 0; stroke-linejoin: miter; stroke-miterlimit: 4; is-custom-font: none; font-file-url: none; fill: rgb(255,255,255); fill-rule: nonzero; opacity: 1;" transform=" translate(-4275.9863, -708.1867)" d="M 3975 1343 c -40 -10 -34 29 -130 -773 c -31 -256 -58 -473 -61 -483 c -5 -16 5 -17 143 -15 l 148 3 l 7 45 c 4 25 17 119 28 210 c 31 235 27 227 94 209 c 43 -12 54 -32 132 -232 c 71 -181 89 -216 120 -227 c 27 -11 291 -16 300 -7 c 13 13 -176 444 -219 501 l -26 33 l 64 41 c 132 87 203 234 193 396 c -8 124 -69 210 -187 264 c -48 22 -75 26 -220 33 c -181 9 -355 9 -386 2 z m 398 -225 c 84 -25 115 -90 97 -202 c -19 -115 -75 -157 -219 -164 l -94 -5 l 6 29 c 3 16 13 97 23 179 c 9 83 21 156 27 163 c 12 15 107 16 160 0 z" stroke-linecap="round"/>
</g>
		<g transform="matrix(0.1333 0 0 -0.1333 -254.3177 -2.0213)">
<path style="stroke: none; stroke-width: 1; stroke-dasharray: none; stroke-linecap: butt; stroke-dashoffset: 0; stroke-linejoin: miter; stroke-miterlimit: 4; is-custom-font: none; font-file-url: none; fill: rgb(255,255,255); fill-rule: nonzero; opacity: 1;" transform=" translate(-5327.7332, -710)" d="M 5026 1342 c -3 -5 -26 -175 -51 -378 c -93 -755 -106 -859 -111 -876 c -5 -17 18 -18 384 -18 l 389 0 l 12 97 c 7 53 15 102 18 110 c 4 11 -38 13 -236 13 c -223 0 -241 1 -241 18 c 0 19 28 234 36 270 c 4 22 6 22 183 22 l 178 0 l 12 93 c 6 50 14 102 17 115 l 4 22 l -186 0 c -149 0 -185 3 -181 13 c 3 7 10 63 17 125 c 7 61 18 120 25 129 c 12 16 38 19 228 23 c 155 4 218 9 230 18 c 16 13 21 38 33 150 l 6 62 l -380 0 c -210 0 -383 -4 -386 -8 z" stroke-linecap="round"/>
</g>
</g>
</g>
</svg>