<?xml version="1.0" standalone="no"?>
<!DOCTYPE svg PUBLIC "-//W3C//DTD SVG 20010904//EN"
 "http://www.w3.org/TR/2001/REC-SVG-20010904/DTD/svg10.dtd">
<svg version="1.0" xmlns="http://www.w3.org/2000/svg"
 width="1447.000000pt" height="139.000000pt" viewBox="0 0 1447.000000 139.000000"
 preserveAspectRatio="xMidYMid meet">

<g transform="translate(0.000000,139.000000) scale(0.100000,-0.100000)"
fill="#000000" stroke="none">
<path d="M7425 1349 c-155 -13 -153 -13 -182 -77 -34 -78 -180 -465 -239 -636
-40 -115 -49 -135 -56 -115 -4 13 -28 166 -53 339 -73 504 -68 491 -179 489
-121 -2 -119 0 -227 -281 -167 -437 -222 -571 -229 -557 -4 8 -10 51 -14 97
-4 46 -25 221 -47 390 -34 261 -43 310 -60 327 -17 18 -33 20 -144 20 -72 0
-128 -4 -134 -10 -7 -8 9 -139 54 -425 71 -453 134 -830 139 -839 2 -3 64 -4
137 -1 l132 5 119 310 c191 498 210 546 215 542 5 -6 68 -408 104 -667 13 -91
27 -171 32 -178 7 -9 43 -12 140 -10 l131 3 56 140 c255 631 440 1095 446
1118 7 31 15 30 -141 16z"/>
<path d="M8088 1353 c-17 -3 -28 -12 -31 -26 -11 -44 -157 -1202 -157 -1242 0
-13 23 -15 145 -15 80 0 145 2 145 5 0 31 53 402 58 407 4 3 61 12 127 18 224
21 319 55 403 143 92 99 138 229 129 367 -7 105 -32 164 -93 226 -86 86 -131
102 -324 114 -161 10 -348 11 -402 3z m484 -272 l41 -43 -5 -93 c-9 -168 -59
-215 -235 -223 -71 -3 -103 -1 -103 6 0 14 38 314 46 365 l6 39 105 -4 104 -3
41 -44z"/>
<path d="M9144 1353 c-29 -4 -32 -8 -38 -51 -24 -171 -72 -546 -106 -827 -22
-181 -43 -347 -47 -367 l-6 -38 386 0 386 0 6 33 c6 37 25 168 25 180 0 4
-106 7 -235 7 l-235 0 0 28 c0 15 7 82 15 147 8 66 15 123 15 128 0 4 79 7
175 7 172 0 176 0 185 23 11 25 29 195 21 202 -2 3 -82 5 -178 5 -158 0 -173
1 -172 18 2 72 37 265 50 273 8 5 114 9 235 9 l222 0 5 28 c3 16 9 64 13 106
5 62 4 80 -7 87 -13 8 -650 10 -715 2z"/>
<path d="M10378 1348 c-9 -7 -77 -141 -151 -298 -74 -157 -208 -437 -296 -623
-89 -186 -161 -343 -161 -348 0 -15 226 -11 265 5 36 15 72 76 124 208 l23 58
218 0 218 0 6 -28 c3 -15 13 -67 22 -115 25 -132 25 -131 188 -135 79 -2 136
0 136 6 0 5 -40 180 -89 388 -49 208 -115 492 -148 630 l-58 252 -50 6 c-89
10 -230 7 -247 -6z m156 -503 c20 -110 37 -218 39 -240 l2 -40 -142 0 c-78 0
-144 3 -148 6 -3 4 26 87 65 184 100 247 129 310 139 299 5 -5 25 -99 45 -209z"/>
<path d="M11019 1358 c-1 -2 -9 -56 -18 -120 l-17 -118 152 0 c110 0 154 -3
162 -13 12 -14 15 19 -58 -596 -28 -234 -53 -428 -56 -433 -3 -4 62 -8 144 -8
l150 0 12 98 c6 53 35 288 63 522 l52 425 162 3 162 2 6 33 c17 95 23 183 14
192 -9 9 -927 22 -930 13z"/>
<path d="M12001 1253 c-7 -60 -14 -114 -17 -120 -2 -10 31 -13 144 -13 104 0
153 -4 163 -12 14 -12 13 -36 -11 -233 -87 -708 -95 -786 -80 -795 8 -6 74
-10 146 -10 l130 0 28 238 c51 432 97 795 102 804 3 4 53 8 112 8 59 0 130 3
158 6 l52 7 11 74 c6 40 11 89 11 107 l0 33 -77 7 c-42 3 -252 6 -468 6 l-392
0 -12 -107z"/>
<path d="M13118 1353 c-22 -6 -19 12 -82 -503 -73 -588 -90 -746 -83 -765 5
-12 30 -15 147 -15 77 0 140 2 140 5 0 3 16 134 35 293 19 158 50 424 69 592
20 168 38 320 41 339 7 56 -3 61 -134 60 -64 -1 -124 -3 -133 -6z"/>
<path d="M13644 1353 c-15 -3 -24 -14 -28 -36 -14 -81 -146 -1181 -146 -1221
l0 -26 380 0 380 0 5 23 c8 38 25 151 25 173 0 20 -5 21 -231 27 -128 4 -234
9 -237 12 -6 6 25 267 35 291 4 11 43 14 181 16 l177 3 12 75 c6 41 12 90 12
108 l1 32 -180 0 -180 0 4 23 c3 12 10 72 16 132 6 61 14 118 16 127 4 14 30
17 228 20 164 2 227 6 239 16 8 7 18 35 21 63 3 27 9 72 12 99 l6 50 -364 -1
c-199 -1 -373 -4 -384 -6z"/>
<path d="M596 1343 c-26 -4 -38 -24 -148 -251 -163 -334 -395 -833 -424 -910
-13 -34 -24 -79 -24 -99 l0 -36 104 5 c106 5 142 17 173 57 7 9 33 67 59 129
l47 112 213 0 c213 0 214 0 219 -22 3 -13 14 -70 25 -127 11 -58 26 -111 34
-119 23 -23 245 -42 275 -23 11 7 8 29 -13 122 -194 854 -263 1149 -271 1158
-8 7 -228 11 -269 4z m123 -453 c44 -247 53 -309 47 -325 -4 -12 -32 -15 -151
-15 l-146 0 7 23 c7 24 193 467 201 480 3 5 6 7 8 5 2 -2 17 -77 34 -168z"/>
<path d="M1444 1343 c-28 -5 -22 29 -93 -548 -72 -584 -87 -722 -77 -732 4 -5
61 -9 125 -11 l118 -4 11 74 c6 40 27 217 47 393 20 176 38 326 41 334 7 20
26 -10 194 -304 222 -389 266 -460 294 -473 14 -6 65 -14 114 -18 l88 -7 18
139 c9 77 44 357 76 624 33 267 63 498 66 514 l6 28 -126 -4 c-69 -2 -130 -8
-135 -13 -5 -6 -28 -174 -51 -375 -24 -201 -46 -374 -50 -384 -6 -17 -9 -16
-32 15 -14 19 -103 169 -198 334 -207 361 -237 407 -270 416 -27 8 -132 9
-166 2z"/>
<path d="M2714 1344 c-23 -6 -17 38 -104 -699 -51 -438 -63 -553 -57 -570 13
-33 436 -26 622 11 123 25 222 81 325 184 97 96 145 180 181 316 27 101 29
261 5 354 -48 190 -173 327 -345 381 -58 17 -100 20 -336 24 -148 2 -279 2
-291 -1z m470 -234 c144 -23 216 -136 216 -335 0 -110 -26 -221 -71 -306 -62
-115 -145 -163 -317 -181 -91 -10 -114 -9 -127 2 -18 15 -19 8 21 360 40 355
55 454 67 462 17 11 141 10 211 -2z"/>
<path d="M3975 1343 c-40 -10 -34 29 -130 -773 -31 -256 -58 -473 -61 -483 -5
-16 5 -17 143 -15 l148 3 7 45 c4 25 17 119 28 210 31 235 27 227 94 209 43
-12 54 -32 132 -232 71 -181 89 -216 120 -227 27 -11 291 -16 300 -7 13 13
-176 444 -219 501 l-26 33 64 41 c132 87 203 234 193 396 -8 124 -69 210 -187
264 -48 22 -75 26 -220 33 -181 9 -355 9 -386 2z m398 -225 c84 -25 115 -90
97 -202 -19 -115 -75 -157 -219 -164 l-94 -5 6 29 c3 16 13 97 23 179 9 83 21
156 27 163 12 15 107 16 160 0z"/>
<path d="M5026 1342 c-3 -5 -26 -175 -51 -378 -93 -755 -106 -859 -111 -876
-5 -17 18 -18 384 -18 l389 0 12 97 c7 53 15 102 18 110 4 11 -38 13 -236 13
-223 0 -241 1 -241 18 0 19 28 234 36 270 4 22 6 22 183 22 l178 0 12 93 c6
50 14 102 17 115 l4 22 -186 0 c-149 0 -185 3 -181 13 3 7 10 63 17 125 7 61
18 120 25 129 12 16 38 19 228 23 155 4 218 9 230 18 16 13 21 38 33 150 l6
62 -380 0 c-210 0 -383 -4 -386 -8z"/>
</g>
</svg>
